{
	"asset":{
		"generator":"Khronos glTF Blender I/O v5.1.18",
		"version":"2.0"
	},
	"extensionsUsed":[
		"BEVY_skein"
	],
	"scene":0,
	"scenes":[
		{
			"name":"Scene",
			"nodes":[
				0,
				1
			]
		}
	],
	"nodes":[
		{
			"mesh":0,
			"name":"Torus"
		},
		{
			"mesh":1,
			"name":"Sphere",
			"scale":[
				5.201322078704834,
				5.201322078704834,
				5.201322078704834
			],
			"translation":[
				10.72873592376709,
				5.02797794342041,
				-8.667769432067871
			]
		}
	],
	"materials":[
		{
			"doubleSided":true,
			"extensions":{
				"BEVY_skein":{
					"components":[
						{
							"bevy_pbr::mesh_material::MeshMaterial3d<bevy_pbr::pbr_material::StandardMaterial>":"Strong"
						}
					]
				}
			},
			"extras":{
				"skein":[
					{
						"bevy_pbr::mesh_material::MeshMaterial3d<bevy_pbr::pbr_material::StandardMaterial>":"Strong"
					}
				]
			},
			"name":"Magic",
			"pbrMetallicRoughness":{
				"metallicFactor":0.20454545319080353,
				"roughnessFactor":0.5
			}
		}
	],
	"meshes":[
		{
			"extensions":{
				"BEVY_skein":{
					"components":[
						{
							"api::TargetSpawner":{
								"limit":10,
								"timer":{
									"duration":{
										"secs":0,
										"nanos":100
									},
									"finished":false,
									"mode":"Repeating",
									"stopwatch":{
										"elapsed":{
											"secs":0,
											"nanos":0
										},
										"is_paused":false
									},
									"times_finished_this_tick":0
								}
							}
						}
					]
				}
			},
			"extras":{
				"skein":[
					{
						"api::TargetSpawner":{
							"limit":10,
							"timer":{
								"duration":{
									"secs":0,
									"nanos":100
								},
								"finished":false,
								"mode":"Repeating",
								"stopwatch":{
									"elapsed":{
										"secs":0,
										"nanos":0
									},
									"is_paused":false
								},
								"times_finished_this_tick":0
							}
						}
					}
				]
			},
			"name":"Torus",
			"primitives":[
				{
					"attributes":{
						"POSITION":0,
						"NORMAL":1,
						"TEXCOORD_0":2
					},
					"indices":3
				}
			]
		},
		{
			"name":"Sphere",
			"primitives":[
				{
					"attributes":{
						"POSITION":4,
						"NORMAL":5,
						"TEXCOORD_0":6
					},
					"indices":7,
					"material":0
				}
			]
		}
	],
	"accessors":[
		{
			"bufferView":0,
			"componentType":5126,
			"count":792,
			"max":[
				17.498077392578125,
				9.684172630310059,
				18.939783096313477
			],
			"min":[
				-15.02593994140625,
				2.1082592010498047,
				4.348769187927246
			],
			"type":"VEC3"
		},
		{
			"bufferView":1,
			"componentType":5126,
			"count":792,
			"type":"VEC3"
		},
		{
			"bufferView":2,
			"componentType":5126,
			"count":792,
			"type":"VEC2"
		},
		{
			"bufferView":3,
			"componentType":5123,
			"count":1212,
			"type":"SCALAR"
		},
		{
			"bufferView":4,
			"componentType":5126,
			"count":559,
			"max":[
				0.9999997019767761,
				1,
				0.9999993443489075
			],
			"min":[
				-0.9999990463256836,
				-1,
				-1
			],
			"type":"VEC3"
		},
		{
			"bufferView":5,
			"componentType":5126,
			"count":559,
			"type":"VEC3"
		},
		{
			"bufferView":6,
			"componentType":5126,
			"count":559,
			"type":"VEC2"
		},
		{
			"bufferView":7,
			"componentType":5123,
			"count":2880,
			"type":"SCALAR"
		}
	],
	"bufferViews":[
		{
			"buffer":0,
			"byteLength":9504,
			"byteOffset":0,
			"target":34962
		},
		{
			"buffer":0,
			"byteLength":9504,
			"byteOffset":9504,
			"target":34962
		},
		{
			"buffer":0,
			"byteLength":6336,
			"byteOffset":19008,
			"target":34962
		},
		{
			"buffer":0,
			"byteLength":2424,
			"byteOffset":25344,
			"target":34963
		},
		{
			"buffer":0,
			"byteLength":6708,
			"byteOffset":27768,
			"target":34962
		},
		{
			"buffer":0,
			"byteLength":6708,
			"byteOffset":34476,
			"target":34962
		},
		{
			"buffer":0,
			"byteLength":4472,
			"byteOffset":41184,
			"target":34962
		},
		{
			"buffer":0,
			"byteLength":5760,
			"byteOffset":45656,
			"target":34963
		}
	],
	"buffers":[
		{
			"byteLength":51416,
			"uri":"Scene.bin"
		}
	]
}
